# Blender v2.65 (sub 0) OBJ File: ''
# www.blender.org
mtllib cornell.mtl
o Cube
v -1.000000 -1.000000 1.000000
v -1.000000 -1.000000 -1.000000
v 1.000000 -1.000000 -1.000000
v 1.000000 -1.000000 1.000000
v -1.000000 1.000000 1.000000
v -1.000000 1.000000 -1.000000
v 1.000000 1.000000 -1.000000
v 1.000000 1.000000 1.000000
v -0.200000 1.000000 0.200000
v -0.200000 1.000000 -0.200000
v 0.200000 1.000000 -0.200000
v 0.200000 1.000000 0.200000
v -0.200000 1.300000 0.200000
v -0.200000 1.300000 -0.200000
v 0.200000 1.300000 -0.200000
v 0.200000 1.300000 0.200000
v -0.587207 -1.000000 0.380069
v -0.742821 -1.000000 -0.199298
v -0.163353 -1.000000 -0.354859
v -0.007739 -1.000000 0.224508
v -0.585961 -0.394470 0.368474
v -0.741575 -0.405346 -0.210893
v -0.162107 -0.409556 -0.366455
v -0.006493 -0.398681 0.212912
v 0.364866 -1.000000 0.637078
v 0.089332 -1.000000 0.244101
v 0.482371 -1.000000 -0.031367
v 0.757905 -1.000000 0.361610
v 0.366943 0.008444 0.617753
v 0.091409 0.001421 0.224775
v 0.484448 -0.004720 -0.050693
v 0.759982 0.002303 0.342285
vn 1.000000 0.000000 -0.000000
vn 0.000000 0.000000 1.000000
vn -1.000000 0.000000 -0.000000
vn -0.000000 0.000000 -1.000000
vn 0.000000 1.000000 0.000000
vn -0.000000 -1.000000 0.000000
vn -0.965763 0.007017 0.259331
vn -0.259294 -0.018351 -0.965624
vn 0.965763 -0.007066 -0.259330
vn 0.259295 0.018020 0.965630
vn 0.002077 0.999811 -0.019326
vn -0.818778 0.012730 0.573969
vn -0.573954 -0.014655 -0.818756
vn 0.818777 -0.012808 -0.573968
vn 0.573954 0.014553 0.818758
usemtl None
s off
f 5//1 1//1 2//1
f 5//1 2//1 6//1
f 6//2 2//2 3//2
f 6//2 3//2 7//2
f 7//3 3//3 4//3
f 7//3 4//3 8//3
f 1//4 5//4 8//4
f 1//4 8//4 4//4
f 3//5 26//5 27//5
f 5//6 9//6 12//6
f 5//6 12//6 8//6
f 8//6 12//6 11//6
f 8//6 11//6 7//6
f 6//6 10//6 9//6
f 6//6 9//6 5//6
f 7//6 11//6 10//6
f 7//6 10//6 6//6
f 11//2 15//2 14//2
f 11//2 14//2 10//2
f 12//3 16//3 15//3
f 12//3 15//3 11//3
f 9//4 13//4 16//4
f 9//4 16//4 12//4
f 10//1 14//1 13//1
f 10//1 13//1 9//1
f 13//6 14//6 15//6
f 13//6 15//6 16//6
f 21//7 22//7 18//7
f 21//7 18//7 17//7
f 22//8 23//8 19//8
f 22//8 19//8 18//8
f 23//9 24//9 20//9
f 23//9 20//9 19//9
f 24//10 21//10 17//10
f 24//10 17//10 20//10
f 3//5 27//5 28//5
f 24//11 23//11 22//11
f 24//11 22//11 21//11
f 29//12 30//12 26//12
f 29//12 26//12 25//12
f 30//13 31//13 27//13
f 30//13 27//13 26//13
f 31//14 32//14 28//14
f 31//14 28//14 27//14
f 32//15 29//15 25//15
f 32//15 25//15 28//15
f 3//5 28//5 4//5
f 32//11 31//11 30//11
f 32//11 30//11 29//11
f 4//5 28//5 25//5
f 1//5 4//5 25//5
f 1//5 25//5 26//5
f 1//5 26//5 20//5
f 26//5 3//5 20//5
f 3//5 19//5 20//5
f 3//5 2//5 19//5
f 2//5 18//5 19//5
f 2//5 1//5 18//5
f 1//5 17//5 18//5
f 1//5 20//5 17//5
