# Blender v2.65 (sub 0) OBJ File: ''
# www.blender.org
o Torus.000_Torus.002
v 0.000000 -2.000000 -0.750000
v 0.353554 -1.853553 -0.750000
v 0.500000 -1.500000 -0.750000
v 0.353553 -1.146447 -0.750000
v 0.000000 -1.000000 -0.750000
v -0.353553 -1.146447 -0.750000
v -0.500000 -1.500000 -0.750000
v -0.353553 -1.853553 -0.750000
v 0.000000 -1.732051 -1.750000
v 0.353554 -1.605224 -1.676777
v 0.500000 -1.299038 -1.500000
v 0.353553 -0.992852 -1.323223
v 0.000000 -0.866025 -1.250000
v -0.353553 -0.992852 -1.323223
v -0.500000 -1.299038 -1.500000
v -0.353553 -1.605224 -1.676777
v 0.000000 -1.000000 -2.482051
v 0.353553 -0.926777 -2.355224
v 0.500000 -0.750000 -2.049038
v 0.353553 -0.573223 -1.742852
v 0.000000 -0.500000 -1.616025
v -0.353553 -0.573223 -1.742852
v -0.500000 -0.750000 -2.049038
v -0.353553 -0.926777 -2.355224
v 0.000000 -0.000000 -2.750000
v 0.353553 -0.000000 -2.603553
v 0.500000 -0.000000 -2.250000
v 0.353553 -0.000000 -1.896447
v 0.000000 -0.000000 -1.750000
v -0.353553 -0.000000 -1.896447
v -0.500000 -0.000000 -2.250000
v -0.353553 -0.000000 -2.603553
v -0.000000 1.000000 -2.482051
v 0.353553 0.926777 -2.355225
v 0.500000 0.750000 -2.049038
v 0.353553 0.573223 -1.742852
v -0.000000 0.500000 -1.616025
v -0.353553 0.573223 -1.742852
v -0.500000 0.750000 -2.049038
v -0.353553 0.926777 -2.355225
v -0.000000 1.732051 -1.750001
v 0.353553 1.605224 -1.676777
v 0.500000 1.299038 -1.500000
v 0.353553 0.992852 -1.323224
v -0.000000 0.866025 -1.250000
v -0.353553 0.992852 -1.323224
v -0.500000 1.299038 -1.500000
v -0.353554 1.605224 -1.676777
v -0.000000 2.000000 -0.750000
v 0.353553 1.853553 -0.750000
v 0.500000 1.500000 -0.750000
v 0.353553 1.146447 -0.750000
v -0.000000 1.000000 -0.750000
v -0.353553 1.146447 -0.750000
v -0.500000 1.500000 -0.750000
v -0.353554 1.853553 -0.750000
v -0.000000 1.732051 0.250000
v 0.353553 1.605224 0.176776
v 0.500000 1.299038 -0.000000
v 0.353553 0.992852 -0.176777
v -0.000000 0.866026 -0.250000
v -0.353554 0.992852 -0.176777
v -0.500000 1.299038 -0.000000
v -0.353554 1.605224 0.176776
v -0.000000 1.000000 0.982051
v 0.353553 0.926777 0.855225
v 0.500000 0.750000 0.549038
v 0.353553 0.573223 0.242852
v -0.000000 0.500000 0.116026
v -0.353553 0.573223 0.242852
v -0.500000 0.750000 0.549038
v -0.353553 0.926777 0.855225
v 0.000000 -0.000000 1.250000
v 0.353553 -0.000000 1.103553
v 0.500000 -0.000000 0.750000
v 0.353553 -0.000000 0.396447
v 0.000000 -0.000000 0.250000
v -0.353553 -0.000000 0.396447
v -0.500000 -0.000000 0.750000
v -0.353553 -0.000000 1.103553
v 0.000000 -1.000000 0.982051
v 0.353553 -0.926777 0.855224
v 0.500000 -0.750000 0.549038
v 0.353553 -0.573223 0.242852
v 0.000000 -0.500000 0.116025
v -0.353553 -0.573223 0.242852
v -0.500000 -0.750000 0.549038
v -0.353553 -0.926777 0.855224
v 0.000000 -1.732051 0.250000
v 0.353554 -1.605224 0.176777
v 0.500000 -1.299038 0.000000
v 0.353553 -0.992852 -0.176777
v 0.000000 -0.866025 -0.250000
v -0.353553 -0.992852 -0.176777
v -0.500000 -1.299038 0.000000
v -0.353553 -1.605224 0.176777
vn 0.371470 -0.896809 -0.240299
vn 0.919060 -0.380687 -0.102005
vn 0.919060 0.380687 0.102005
vn 0.371470 0.896809 0.240299
vn -0.371470 0.896809 0.240299
vn -0.919061 0.380687 0.102005
vn -0.919060 -0.380687 -0.102005
vn -0.371470 -0.896809 -0.240299
vn 0.371470 -0.656510 -0.656510
vn 0.919061 -0.278682 -0.278682
vn 0.919060 0.278683 0.278683
vn 0.371470 0.656510 0.656510
vn -0.371470 0.656510 0.656510
vn -0.919060 0.278682 0.278683
vn -0.919061 -0.278682 -0.278682
vn -0.371470 -0.656510 -0.656510
vn 0.371471 -0.240299 -0.896809
vn 0.919061 -0.102005 -0.380687
vn 0.919060 0.102005 0.380687
vn 0.371470 0.240299 0.896809
vn -0.371470 0.240299 0.896809
vn -0.919060 0.102005 0.380687
vn -0.919061 -0.102005 -0.380687
vn -0.371471 -0.240299 -0.896809
vn 0.371470 0.240299 -0.896809
vn 0.919061 0.102005 -0.380687
vn 0.919061 -0.102005 0.380687
vn 0.371470 -0.240299 0.896809
vn -0.371470 -0.240299 0.896809
vn -0.919060 -0.102005 0.380687
vn -0.919061 0.102005 -0.380687
vn -0.371470 0.240299 -0.896809
vn 0.371470 0.656510 -0.656510
vn 0.919061 0.278682 -0.278682
vn 0.919060 -0.278682 0.278683
vn 0.371470 -0.656510 0.656510
vn -0.371470 -0.656510 0.656510
vn -0.919060 -0.278682 0.278683
vn -0.919061 0.278682 -0.278683
vn -0.371470 0.656510 -0.656510
vn 0.371470 0.896809 -0.240299
vn 0.919060 0.380687 -0.102005
vn 0.919060 -0.380687 0.102005
vn 0.371470 -0.896809 0.240299
vn -0.371470 -0.896809 0.240299
vn -0.919060 -0.380687 0.102005
vn -0.919060 0.380687 -0.102005
vn -0.371470 0.896809 -0.240299
vn 0.919060 0.278682 0.278682
vn 0.919061 -0.278682 -0.278683
vn -0.919060 -0.278683 -0.278683
vn -0.919061 0.278682 0.278682
vn 0.919061 0.102005 0.380687
vn 0.371470 -0.240299 -0.896809
vn -0.371470 -0.240299 -0.896809
vn -0.919060 -0.102005 -0.380687
vn 0.919060 0.102005 -0.380687
vn -0.919060 0.102005 -0.380687
vn -0.919061 -0.102005 0.380687
vn 0.919061 -0.278682 0.278683
vn 0.919060 0.278683 -0.278683
vn -0.919061 0.278682 -0.278682
vn -0.919061 -0.278682 0.278682
vn 0.919061 -0.380687 0.102005
vn -0.919061 0.380687 -0.102005
s off
f 1//1 9//1 10//1
f 1//1 10//1 2//1
f 2//2 10//2 11//2
f 2//2 11//2 3//2
f 3//3 11//3 12//3
f 3//3 12//3 4//3
f 4//4 12//4 13//4
f 4//4 13//4 5//4
f 5//5 13//5 14//5
f 5//5 14//5 6//5
f 6//6 14//6 15//6
f 6//6 15//6 7//6
f 7//7 15//7 16//7
f 7//7 16//7 8//7
f 1//8 8//8 16//8
f 1//8 16//8 9//8
f 9//9 17//9 18//9
f 9//9 18//9 10//9
f 10//10 18//10 19//10
f 10//10 19//10 11//10
f 11//11 19//11 20//11
f 11//11 20//11 12//11
f 12//12 20//12 21//12
f 12//12 21//12 13//12
f 13//13 21//13 22//13
f 13//13 22//13 14//13
f 14//14 22//14 23//14
f 14//14 23//14 15//14
f 15//15 23//15 24//15
f 15//15 24//15 16//15
f 16//16 24//16 17//16
f 16//16 17//16 9//16
f 17//17 25//17 26//17
f 17//17 26//17 18//17
f 18//18 26//18 27//18
f 18//18 27//18 19//18
f 19//19 27//19 28//19
f 19//19 28//19 20//19
f 20//20 28//20 29//20
f 20//20 29//20 21//20
f 21//21 29//21 30//21
f 21//21 30//21 22//21
f 22//22 30//22 31//22
f 22//22 31//22 23//22
f 23//23 31//23 32//23
f 23//23 32//23 24//23
f 24//24 32//24 25//24
f 24//24 25//24 17//24
f 25//25 33//25 34//25
f 25//25 34//25 26//25
f 26//26 34//26 35//26
f 26//26 35//26 27//26
f 27//27 35//27 36//27
f 27//27 36//27 28//27
f 28//28 36//28 37//28
f 28//28 37//28 29//28
f 29//29 37//29 38//29
f 29//29 38//29 30//29
f 30//30 38//30 39//30
f 30//30 39//30 31//30
f 31//31 39//31 40//31
f 31//31 40//31 32//31
f 32//32 40//32 33//32
f 32//32 33//32 25//32
f 33//33 41//33 42//33
f 33//33 42//33 34//33
f 34//34 42//34 43//34
f 34//34 43//34 35//34
f 35//35 43//35 44//35
f 35//35 44//35 36//35
f 36//36 44//36 45//36
f 36//36 45//36 37//36
f 37//37 45//37 46//37
f 37//37 46//37 38//37
f 38//38 46//38 47//38
f 38//38 47//38 39//38
f 39//39 47//39 48//39
f 39//39 48//39 40//39
f 40//40 48//40 41//40
f 40//40 41//40 33//40
f 41//41 49//41 50//41
f 41//41 50//41 42//41
f 42//42 50//42 51//42
f 42//42 51//42 43//42
f 43//43 51//43 52//43
f 43//43 52//43 44//43
f 44//44 52//44 53//44
f 44//44 53//44 45//44
f 45//45 53//45 54//45
f 45//45 54//45 46//45
f 46//46 54//46 55//46
f 46//46 55//46 47//46
f 47//47 55//47 56//47
f 47//47 56//47 48//47
f 48//48 56//48 49//48
f 48//48 49//48 41//48
f 49//4 57//4 58//4
f 49//4 58//4 50//4
f 50//3 58//3 59//3
f 50//3 59//3 51//3
f 51//2 59//2 60//2
f 51//2 60//2 52//2
f 52//1 60//1 61//1
f 52//1 61//1 53//1
f 53//8 61//8 62//8
f 53//8 62//8 54//8
f 54//7 62//7 63//7
f 54//7 63//7 55//7
f 55//6 63//6 64//6
f 55//6 64//6 56//6
f 56//5 64//5 57//5
f 56//5 57//5 49//5
f 57//12 65//12 66//12
f 57//12 66//12 58//12
f 58//49 66//49 67//49
f 58//49 67//49 59//49
f 59//50 67//50 68//50
f 59//50 68//50 60//50
f 60//9 68//9 69//9
f 60//9 69//9 61//9
f 61//16 69//16 70//16
f 61//16 70//16 62//16
f 62//51 70//51 71//51
f 62//51 71//51 63//51
f 63//52 71//52 72//52
f 63//52 72//52 64//52
f 64//13 72//13 65//13
f 64//13 65//13 57//13
f 65//20 73//20 74//20
f 65//20 74//20 66//20
f 66//53 74//53 75//53
f 66//53 75//53 67//53
f 67//18 75//18 76//18
f 67//18 76//18 68//18
f 68//54 76//54 77//54
f 68//54 77//54 69//54
f 69//55 77//55 78//55
f 69//55 78//55 70//55
f 70//56 78//56 79//56
f 70//56 79//56 71//56
f 71//22 79//22 80//22
f 71//22 80//22 72//22
f 72//21 80//21 73//21
f 72//21 73//21 65//21
f 73//28 81//28 82//28
f 73//28 82//28 74//28
f 74//27 82//27 83//27
f 74//27 83//27 75//27
f 75//57 83//57 84//57
f 75//57 84//57 76//57
f 76//25 84//25 85//25
f 76//25 85//25 77//25
f 77//32 85//32 86//32
f 77//32 86//32 78//32
f 78//58 86//58 87//58
f 78//58 87//58 79//58
f 79//59 87//59 88//59
f 79//59 88//59 80//59
f 80//29 88//29 81//29
f 80//29 81//29 73//29
f 81//36 89//36 90//36
f 81//36 90//36 82//36
f 82//60 90//60 91//60
f 82//60 91//60 83//60
f 83//61 91//61 92//61
f 83//61 92//61 84//61
f 84//33 92//33 93//33
f 84//33 93//33 85//33
f 85//40 93//40 94//40
f 85//40 94//40 86//40
f 86//62 94//62 95//62
f 86//62 95//62 87//62
f 87//63 95//63 96//63
f 87//63 96//63 88//63
f 88//37 96//37 89//37
f 88//37 89//37 81//37
f 89//44 1//44 2//44
f 89//44 2//44 90//44
f 90//64 2//64 3//64
f 90//64 3//64 91//64
f 91//42 3//42 4//42
f 91//42 4//42 92//42
f 92//41 4//41 5//41
f 92//41 5//41 93//41
f 93//48 5//48 6//48
f 93//48 6//48 94//48
f 94//65 6//65 7//65
f 94//65 7//65 95//65
f 95//46 7//46 8//46
f 95//46 8//46 96//46
f 1//45 89//45 96//45
f 1//45 96//45 8//45
o Torus.001
v 2.000000 0.000000 0.750000
v 1.853553 0.353553 0.750000
v 1.500000 0.500000 0.750000
v 1.146447 0.353553 0.750000
v 1.000000 0.000000 0.750000
v 1.146447 -0.353553 0.750000
v 1.500000 -0.500000 0.750000
v 1.853553 -0.353553 0.750000
v 1.732051 0.000000 -0.250000
v 1.605224 0.353553 -0.176777
v 1.299038 0.500000 -0.000000
v 0.992852 0.353553 0.176777
v 0.866025 0.000000 0.250000
v 0.992852 -0.353553 0.176777
v 1.299038 -0.500000 -0.000000
v 1.605224 -0.353553 -0.176777
v 1.000000 0.000000 -0.982051
v 0.926777 0.353553 -0.855224
v 0.750000 0.500000 -0.549038
v 0.573223 0.353553 -0.242852
v 0.500000 0.000000 -0.116025
v 0.573223 -0.353553 -0.242852
v 0.750000 -0.500000 -0.549038
v 0.926777 -0.353553 -0.855224
v 0.000000 0.000000 -1.250000
v 0.000000 0.353553 -1.103553
v 0.000000 0.500000 -0.750000
v 0.000000 0.353553 -0.396447
v 0.000000 0.000000 -0.250000
v 0.000000 -0.353553 -0.396447
v 0.000000 -0.500000 -0.750000
v 0.000000 -0.353553 -1.103553
v -1.000000 0.000000 -0.982051
v -0.926777 0.353553 -0.855225
v -0.750000 0.500000 -0.549038
v -0.573223 0.353553 -0.242852
v -0.500000 0.000000 -0.116026
v -0.573223 -0.353553 -0.242852
v -0.750000 -0.500000 -0.549038
v -0.926777 -0.353553 -0.855225
v -1.732051 0.000000 -0.250001
v -1.605224 0.353553 -0.176777
v -1.299038 0.500000 -0.000000
v -0.992852 0.353553 0.176776
v -0.866025 0.000000 0.250000
v -0.992852 -0.353553 0.176776
v -1.299038 -0.500000 -0.000000
v -1.605224 -0.353553 -0.176777
v -2.000000 0.000000 0.750000
v -1.853553 0.353553 0.750000
v -1.500000 0.500000 0.750000
v -1.146447 0.353553 0.750000
v -1.000000 0.000000 0.750000
v -1.146447 -0.353553 0.750000
v -1.500000 -0.500000 0.750000
v -1.853553 -0.353553 0.750000
v -1.732051 0.000000 1.750000
v -1.605224 0.353553 1.676776
v -1.299038 0.500000 1.500000
v -0.992852 0.353553 1.323223
v -0.866026 0.000000 1.250000
v -0.992852 -0.353553 1.323223
v -1.299038 -0.500000 1.500000
v -1.605224 -0.353553 1.676776
v -1.000000 0.000000 2.482051
v -0.926777 0.353553 2.355225
v -0.750000 0.500000 2.049038
v -0.573223 0.353553 1.742852
v -0.500000 0.000000 1.616025
v -0.573223 -0.353553 1.742852
v -0.750000 -0.500000 2.049038
v -0.926777 -0.353553 2.355225
v 0.000000 0.000000 2.750000
v 0.000000 0.353553 2.603553
v 0.000000 0.500000 2.250000
v 0.000000 0.353553 1.896447
v 0.000000 0.000000 1.750000
v 0.000000 -0.353553 1.896447
v 0.000000 -0.500000 2.250000
v 0.000000 -0.353553 2.603553
v 1.000000 0.000000 2.482051
v 0.926777 0.353553 2.355224
v 0.750000 0.500000 2.049038
v 0.573223 0.353553 1.742852
v 0.500000 0.000000 1.616025
v 0.573223 -0.353553 1.742852
v 0.750000 -0.500000 2.049038
v 0.926777 -0.353553 2.355224
v 1.732051 0.000000 1.750000
v 1.605224 0.353553 1.676777
v 1.299038 0.500000 1.500000
v 0.992852 0.353553 1.323223
v 0.866025 0.000000 1.250000
v 0.992852 -0.353553 1.323223
v 1.299038 -0.500000 1.500000
v 1.605224 -0.353553 1.676777
vn 0.896809 0.371470 -0.240299
vn 0.380687 0.919060 -0.102005
vn -0.380687 0.919061 0.102005
vn -0.896809 0.371470 0.240299
vn -0.896809 -0.371470 0.240299
vn -0.380687 -0.919061 0.102005
vn 0.380687 -0.919060 -0.102005
vn 0.896809 -0.371470 -0.240299
vn 0.656510 0.371470 -0.656510
vn 0.278682 0.919061 -0.278682
vn -0.278682 0.919061 0.278683
vn -0.656510 0.371470 0.656510
vn -0.656510 -0.371470 0.656510
vn -0.278682 -0.919061 0.278683
vn 0.278682 -0.919061 -0.278682
vn 0.656510 -0.371470 -0.656510
vn 0.240299 0.371470 -0.896809
vn 0.102005 0.919060 -0.380687
vn -0.102005 0.919060 0.380687
vn -0.240299 0.371470 0.896809
vn -0.240299 -0.371470 0.896809
vn -0.102005 -0.919060 0.380687
vn 0.102005 -0.919060 -0.380687
vn 0.240299 -0.371470 -0.896809
vn -0.240299 0.371470 -0.896809
vn -0.102005 0.919061 -0.380687
vn 0.102005 0.919060 0.380687
vn 0.240299 0.371470 0.896809
vn 0.240299 -0.371470 0.896809
vn 0.102005 -0.919060 0.380687
vn -0.102005 -0.919061 -0.380687
vn -0.240299 -0.371470 -0.896809
vn -0.656510 0.371470 -0.656510
vn -0.278682 0.919061 -0.278682
vn 0.278682 0.919060 0.278683
vn 0.656510 0.371470 0.656510
vn 0.656510 -0.371470 0.656510
vn 0.278682 -0.919060 0.278683
vn -0.278682 -0.919061 -0.278682
vn -0.656510 -0.371470 -0.656510
vn -0.896809 0.371470 -0.240299
vn -0.380687 0.919060 -0.102005
vn 0.380687 0.919060 0.102005
vn 0.896809 0.371470 0.240299
vn 0.896809 -0.371470 0.240299
vn 0.380687 -0.919060 0.102005
vn -0.380687 -0.919060 -0.102005
vn -0.896809 -0.371470 -0.240299
vn -0.380687 0.919060 0.102005
vn -0.380687 -0.919060 0.102005
vn -0.278682 0.919061 0.278682
vn 0.278683 0.919060 -0.278683
vn 0.278683 -0.919060 -0.278683
vn -0.278682 -0.919061 0.278682
vn -0.102005 0.919061 0.380687
vn -0.102005 -0.919061 0.380687
vn 0.240299 0.371471 0.896809
vn -0.102005 0.919060 -0.380687
vn -0.102005 -0.919060 -0.380687
vn 0.240299 -0.371471 0.896809
vn 0.278682 0.919061 0.278682
vn -0.278682 0.919060 -0.278683
vn -0.278682 -0.919060 -0.278683
vn 0.278682 -0.919061 0.278682
vn -0.380687 0.919061 -0.102005
vn -0.380687 -0.919061 -0.102005
s off
f 97//66 105//66 106//66
f 97//66 106//66 98//66
f 98//67 106//67 107//67
f 98//67 107//67 99//67
f 99//68 107//68 108//68
f 99//68 108//68 100//68
f 100//69 108//69 109//69
f 100//69 109//69 101//69
f 101//70 109//70 110//70
f 101//70 110//70 102//70
f 102//71 110//71 111//71
f 102//71 111//71 103//71
f 103//72 111//72 112//72
f 103//72 112//72 104//72
f 97//73 104//73 112//73
f 97//73 112//73 105//73
f 105//74 113//74 114//74
f 105//74 114//74 106//74
f 106//75 114//75 115//75
f 106//75 115//75 107//75
f 107//76 115//76 116//76
f 107//76 116//76 108//76
f 108//77 116//77 117//77
f 108//77 117//77 109//77
f 109//78 117//78 118//78
f 109//78 118//78 110//78
f 110//79 118//79 119//79
f 110//79 119//79 111//79
f 111//80 119//80 120//80
f 111//80 120//80 112//80
f 112//81 120//81 113//81
f 112//81 113//81 105//81
f 113//82 121//82 122//82
f 113//82 122//82 114//82
f 114//83 122//83 123//83
f 114//83 123//83 115//83
f 115//84 123//84 124//84
f 115//84 124//84 116//84
f 116//85 124//85 125//85
f 116//85 125//85 117//85
f 117//86 125//86 126//86
f 117//86 126//86 118//86
f 118//87 126//87 127//87
f 118//87 127//87 119//87
f 119//88 127//88 128//88
f 119//88 128//88 120//88
f 120//89 128//89 121//89
f 120//89 121//89 113//89
f 121//90 129//90 130//90
f 121//90 130//90 122//90
f 122//91 130//91 131//91
f 122//91 131//91 123//91
f 123//92 131//92 132//92
f 123//92 132//92 124//92
f 124//93 132//93 133//93
f 124//93 133//93 125//93
f 125//94 133//94 134//94
f 125//94 134//94 126//94
f 126//95 134//95 135//95
f 126//95 135//95 127//95
f 127//96 135//96 136//96
f 127//96 136//96 128//96
f 128//97 136//97 129//97
f 128//97 129//97 121//97
f 129//98 137//98 138//98
f 129//98 138//98 130//98
f 130//99 138//99 139//99
f 130//99 139//99 131//99
f 131//100 139//100 140//100
f 131//100 140//100 132//100
f 132//101 140//101 141//101
f 132//101 141//101 133//101
f 133//102 141//102 142//102
f 133//102 142//102 134//102
f 134//103 142//103 143//103
f 134//103 143//103 135//103
f 135//104 143//104 144//104
f 135//104 144//104 136//104
f 136//105 144//105 137//105
f 136//105 137//105 129//105
f 137//106 145//106 146//106
f 137//106 146//106 138//106
f 138//107 146//107 147//107
f 138//107 147//107 139//107
f 139//108 147//108 148//108
f 139//108 148//108 140//108
f 140//109 148//109 149//109
f 140//109 149//109 141//109
f 141//110 149//110 150//110
f 141//110 150//110 142//110
f 142//111 150//111 151//111
f 142//111 151//111 143//111
f 143//112 151//112 152//112
f 143//112 152//112 144//112
f 144//113 152//113 145//113
f 144//113 145//113 137//113
f 145//69 153//69 154//69
f 145//69 154//69 146//69
f 146//114 154//114 155//114
f 146//114 155//114 147//114
f 147//67 155//67 156//67
f 147//67 156//67 148//67
f 148//66 156//66 157//66
f 148//66 157//66 149//66
f 149//73 157//73 158//73
f 149//73 158//73 150//73
f 150//72 158//72 159//72
f 150//72 159//72 151//72
f 151//115 159//115 160//115
f 151//115 160//115 152//115
f 152//70 160//70 153//70
f 152//70 153//70 145//70
f 153//77 161//77 162//77
f 153//77 162//77 154//77
f 154//116 162//116 163//116
f 154//116 163//116 155//116
f 155//117 163//117 164//117
f 155//117 164//117 156//117
f 156//74 164//74 165//74
f 156//74 165//74 157//74
f 157//81 165//81 166//81
f 157//81 166//81 158//81
f 158//118 166//118 167//118
f 158//118 167//118 159//118
f 159//119 167//119 168//119
f 159//119 168//119 160//119
f 160//78 168//78 161//78
f 160//78 161//78 153//78
f 161//85 169//85 170//85
f 161//85 170//85 162//85
f 162//120 170//120 171//120
f 162//120 171//120 163//120
f 163//83 171//83 172//83
f 163//83 172//83 164//83
f 164//82 172//82 173//82
f 164//82 173//82 165//82
f 165//89 173//89 174//89
f 165//89 174//89 166//89
f 166//88 174//88 175//88
f 166//88 175//88 167//88
f 167//121 175//121 176//121
f 167//121 176//121 168//121
f 168//86 176//86 169//86
f 168//86 169//86 161//86
f 169//122 177//122 178//122
f 169//122 178//122 170//122
f 170//92 178//92 179//92
f 170//92 179//92 171//92
f 171//123 179//123 180//123
f 171//123 180//123 172//123
f 172//90 180//90 181//90
f 172//90 181//90 173//90
f 173//97 181//97 182//97
f 173//97 182//97 174//97
f 174//124 182//124 183//124
f 174//124 183//124 175//124
f 175//95 183//95 184//95
f 175//95 184//95 176//95
f 176//125 184//125 177//125
f 176//125 177//125 169//125
f 177//101 185//101 186//101
f 177//101 186//101 178//101
f 178//126 186//126 187//126
f 178//126 187//126 179//126
f 179//127 187//127 188//127
f 179//127 188//127 180//127
f 180//98 188//98 189//98
f 180//98 189//98 181//98
f 181//105 189//105 190//105
f 181//105 190//105 182//105
f 182//128 190//128 191//128
f 182//128 191//128 183//128
f 183//129 191//129 192//129
f 183//129 192//129 184//129
f 184//102 192//102 185//102
f 184//102 185//102 177//102
f 185//109 97//109 98//109
f 185//109 98//109 186//109
f 186//108 98//108 99//108
f 186//108 99//108 187//108
f 187//130 99//130 100//130
f 187//130 100//130 188//130
f 188//106 100//106 101//106
f 188//106 101//106 189//106
f 189//113 101//113 102//113
f 189//113 102//113 190//113
f 190//131 102//131 103//131
f 190//131 103//131 191//131
f 191//111 103//111 104//111
f 191//111 104//111 192//111
f 97//110 185//110 192//110
f 97//110 192//110 104//110
